
  <svg width='826.5px'
       height='294.3068124323869px'
       viewBox='0 0 826.5 294.3068124323869'
       xmlns='http://www.w3.org/2000/svg'
       xmlns:xlink="http://www.w3.org/1999/xlink">

    <style type='text/css'>
    .keycap .border { stroke: black; stroke-width: 2; }
    .keycap .inner.border { stroke: rgba(0,0,0,.1); }
    </style>
    <defs>
      <linearGradient id="DCS">
        <stop offset="0%" stop-color="black" stop-opacity="0"/>
        <stop offset="40%" stop-color="black" stop-opacity="0.1"/>
        <stop offset="60%" stop-color="black" stop-opacity="0.1"/>
        <stop offset="100%" stop-color="black" stop-opacity="0"/>
      </linearGradient>
      <linearGradient id="SPACE" x1="0%" x2="0%" y1="0%" y2="100%">
        <stop offset="0%" stop-color="black" stop-opacity="0.1"/>
        <stop offset="20%" stop-color="black" stop-opacity="0.0"/>
        <stop offset="40%" stop-color="black" stop-opacity="0.0"/>
        <stop offset="100%" stop-color="black" stop-opacity="0.1"/>
      </linearGradient>
      <radialGradient id="DSA">
        <stop offset="0%" stop-color="black" stop-opacity="0.1"/>
        <stop offset="10%" stop-color="black" stop-opacity="0.1"/>
        <stop offset="100%" stop-color="black" stop-opacity="0"/>
      </radialGradient>
      <radialGradient id="SA" xlink:href="#DSA" />
    </defs>

    <g transform='translate(10,10)'>
      <rect width="806.5" height="274.3068124323869"
            stroke="#ddd" stroke-width="1" fill="#eeeeee" rx="6"/>
      <g transform='translate(5,5)'>
        
  <g class='  keycap'
  >

  
    <!-- Outer Border -->
    <rect x="163" y="1"
          width="52" height="52"
          rx="5" fill="#888888" class="outer border"/>
    
    <!-- Outer Fill -->
    <rect x="163" y="1"
          width="52" height="52"
          rx="5" fill="#888888"/>
    

    
      <!-- Inner Border -->
      <rect x="169" y="4"
            width="40" height="40"
            rx="5" fill="#a7a7a7" class="inner border"/>
      
      <!-- Inner Fill -->
      <rect x="169" y="4"
            width="40" height="40"
            rx="5" fill="#a7a7a7"/>
      
      

     
   
  </g>

  <g class='  keycap'
  >

  
    <!-- Outer Border -->
    <rect x="581.5" y="1"
          width="52" height="52"
          rx="5" fill="#888888" class="outer border"/>
    
    <!-- Outer Fill -->
    <rect x="581.5" y="1"
          width="52" height="52"
          rx="5" fill="#888888"/>
    

    
      <!-- Inner Border -->
      <rect x="587.5" y="4"
            width="40" height="40"
            rx="5" fill="#a7a7a7" class="inner border"/>
      
      <!-- Inner Fill -->
      <rect x="587.5" y="4"
            width="40" height="40"
            rx="5" fill="#a7a7a7"/>
      
      

     
   
  </g>

  <g class='  keycap'
  >

  
    <!-- Outer Border -->
    <rect x="109" y="8.02"
          width="52" height="52"
          rx="5" fill="#888888" class="outer border"/>
    
    <!-- Outer Fill -->
    <rect x="109" y="8.02"
          width="52" height="52"
          rx="5" fill="#888888"/>
    

    
      <!-- Inner Border -->
      <rect x="115" y="11.02"
            width="40" height="40"
            rx="5" fill="#a7a7a7" class="inner border"/>
      
      <!-- Inner Fill -->
      <rect x="115" y="11.02"
            width="40" height="40"
            rx="5" fill="#a7a7a7"/>
      
      

     
   
  </g>

  <g class='  keycap'
  >

  
    <!-- Outer Border -->
    <rect x="217" y="8.02"
          width="52" height="52"
          rx="5" fill="#888888" class="outer border"/>
    
    <!-- Outer Fill -->
    <rect x="217" y="8.02"
          width="52" height="52"
          rx="5" fill="#888888"/>
    

    
      <!-- Inner Border -->
      <rect x="223" y="11.02"
            width="40" height="40"
            rx="5" fill="#a7a7a7" class="inner border"/>
      
      <!-- Inner Fill -->
      <rect x="223" y="11.02"
            width="40" height="40"
            rx="5" fill="#a7a7a7"/>
      
      

     
   
  </g>

  <g class='  keycap'
  >

  
    <!-- Outer Border -->
    <rect x="527.5" y="8.02"
          width="52" height="52"
          rx="5" fill="#888888" class="outer border"/>
    
    <!-- Outer Fill -->
    <rect x="527.5" y="8.02"
          width="52" height="52"
          rx="5" fill="#888888"/>
    

    
      <!-- Inner Border -->
      <rect x="533.5" y="11.02"
            width="40" height="40"
            rx="5" fill="#a7a7a7" class="inner border"/>
      
      <!-- Inner Fill -->
      <rect x="533.5" y="11.02"
            width="40" height="40"
            rx="5" fill="#a7a7a7"/>
      
      

     
   
  </g>

  <g class='  keycap'
  >

  
    <!-- Outer Border -->
    <rect x="635.5" y="8.02"
          width="52" height="52"
          rx="5" fill="#888888" class="outer border"/>
    
    <!-- Outer Fill -->
    <rect x="635.5" y="8.02"
          width="52" height="52"
          rx="5" fill="#888888"/>
    

    
      <!-- Inner Border -->
      <rect x="641.5" y="11.02"
            width="40" height="40"
            rx="5" fill="#a7a7a7" class="inner border"/>
      
      <!-- Inner Fill -->
      <rect x="641.5" y="11.02"
            width="40" height="40"
            rx="5" fill="#a7a7a7"/>
      
      

     
   
  </g>

  <g class='  keycap'
  >

  
    <!-- Outer Border -->
    <rect x="271" y="14.5"
          width="52" height="52"
          rx="5" fill="#888888" class="outer border"/>
    
    <!-- Outer Fill -->
    <rect x="271" y="14.5"
          width="52" height="52"
          rx="5" fill="#888888"/>
    

    
      <!-- Inner Border -->
      <rect x="277" y="17.5"
            width="40" height="40"
            rx="5" fill="#a7a7a7" class="inner border"/>
      
      <!-- Inner Fill -->
      <rect x="277" y="17.5"
            width="40" height="40"
            rx="5" fill="#a7a7a7"/>
      
      

     
   
  </g>

  <g class='  keycap'
  >

  
    <!-- Outer Border -->
    <rect x="473.5" y="14.5"
          width="52" height="52"
          rx="5" fill="#888888" class="outer border"/>
    
    <!-- Outer Fill -->
    <rect x="473.5" y="14.5"
          width="52" height="52"
          rx="5" fill="#888888"/>
    

    
      <!-- Inner Border -->
      <rect x="479.5" y="17.5"
            width="40" height="40"
            rx="5" fill="#a7a7a7" class="inner border"/>
      
      <!-- Inner Fill -->
      <rect x="479.5" y="17.5"
            width="40" height="40"
            rx="5" fill="#a7a7a7"/>
      
      

     
   
  </g>

  <g class='  keycap'
  >

  
    <!-- Outer Border -->
    <rect x="1" y="21.52"
          width="52" height="52"
          rx="5" fill="#888888" class="outer border"/>
    
    <!-- Outer Fill -->
    <rect x="1" y="21.52"
          width="52" height="52"
          rx="5" fill="#888888"/>
    

    
      <!-- Inner Border -->
      <rect x="7" y="24.52"
            width="40" height="40"
            rx="5" fill="#a7a7a7" class="inner border"/>
      
      <!-- Inner Fill -->
      <rect x="7" y="24.52"
            width="40" height="40"
            rx="5" fill="#a7a7a7"/>
      
      

     
   
  </g>

  <g class='  keycap'
  >

  
    <!-- Outer Border -->
    <rect x="55" y="21.52"
          width="52" height="52"
          rx="5" fill="#888888" class="outer border"/>
    
    <!-- Outer Fill -->
    <rect x="55" y="21.52"
          width="52" height="52"
          rx="5" fill="#888888"/>
    

    
      <!-- Inner Border -->
      <rect x="61" y="24.52"
            width="40" height="40"
            rx="5" fill="#a7a7a7" class="inner border"/>
      
      <!-- Inner Fill -->
      <rect x="61" y="24.52"
            width="40" height="40"
            rx="5" fill="#a7a7a7"/>
      
      

     
   
  </g>

  <g class='  keycap'
  >

  
    <!-- Outer Border -->
    <rect x="689.5" y="21.52"
          width="52" height="52"
          rx="5" fill="#888888" class="outer border"/>
    
    <!-- Outer Fill -->
    <rect x="689.5" y="21.52"
          width="52" height="52"
          rx="5" fill="#888888"/>
    

    
      <!-- Inner Border -->
      <rect x="695.5" y="24.52"
            width="40" height="40"
            rx="5" fill="#a7a7a7" class="inner border"/>
      
      <!-- Inner Fill -->
      <rect x="695.5" y="24.52"
            width="40" height="40"
            rx="5" fill="#a7a7a7"/>
      
      

     
   
  </g>

  <g class='  keycap'
  >

  
    <!-- Outer Border -->
    <rect x="743.5" y="21.52"
          width="52" height="52"
          rx="5" fill="#888888" class="outer border"/>
    
    <!-- Outer Fill -->
    <rect x="743.5" y="21.52"
          width="52" height="52"
          rx="5" fill="#888888"/>
    

    
      <!-- Inner Border -->
      <rect x="749.5" y="24.52"
            width="40" height="40"
            rx="5" fill="#a7a7a7" class="inner border"/>
      
      <!-- Inner Fill -->
      <rect x="749.5" y="24.52"
            width="40" height="40"
            rx="5" fill="#a7a7a7"/>
      
      

     
   
  </g>

  <g class='  keycap'
  >

  
    <!-- Outer Border -->
    <rect x="163" y="55"
          width="52" height="52"
          rx="5" fill="#888888" class="outer border"/>
    
    <!-- Outer Fill -->
    <rect x="163" y="55"
          width="52" height="52"
          rx="5" fill="#888888"/>
    

    
      <!-- Inner Border -->
      <rect x="169" y="58"
            width="40" height="40"
            rx="5" fill="#a7a7a7" class="inner border"/>
      
      <!-- Inner Fill -->
      <rect x="169" y="58"
            width="40" height="40"
            rx="5" fill="#a7a7a7"/>
      
      

     
   
  </g>

  <g class='  keycap'
  >

  
    <!-- Outer Border -->
    <rect x="581.5" y="55"
          width="52" height="52"
          rx="5" fill="#888888" class="outer border"/>
    
    <!-- Outer Fill -->
    <rect x="581.5" y="55"
          width="52" height="52"
          rx="5" fill="#888888"/>
    

    
      <!-- Inner Border -->
      <rect x="587.5" y="58"
            width="40" height="40"
            rx="5" fill="#a7a7a7" class="inner border"/>
      
      <!-- Inner Fill -->
      <rect x="587.5" y="58"
            width="40" height="40"
            rx="5" fill="#a7a7a7"/>
      
      

     
   
  </g>

  <g class='  keycap'
  >

  
    <!-- Outer Border -->
    <rect x="109" y="62.019999999999996"
          width="52" height="52"
          rx="5" fill="#888888" class="outer border"/>
    
    <!-- Outer Fill -->
    <rect x="109" y="62.019999999999996"
          width="52" height="52"
          rx="5" fill="#888888"/>
    

    
      <!-- Inner Border -->
      <rect x="115" y="65.02"
            width="40" height="40"
            rx="5" fill="#a7a7a7" class="inner border"/>
      
      <!-- Inner Fill -->
      <rect x="115" y="65.02"
            width="40" height="40"
            rx="5" fill="#a7a7a7"/>
      
      

     
   
  </g>

  <g class='  keycap'
  >

  
    <!-- Outer Border -->
    <rect x="217" y="62.019999999999996"
          width="52" height="52"
          rx="5" fill="#888888" class="outer border"/>
    
    <!-- Outer Fill -->
    <rect x="217" y="62.019999999999996"
          width="52" height="52"
          rx="5" fill="#888888"/>
    

    
      <!-- Inner Border -->
      <rect x="223" y="65.02"
            width="40" height="40"
            rx="5" fill="#a7a7a7" class="inner border"/>
      
      <!-- Inner Fill -->
      <rect x="223" y="65.02"
            width="40" height="40"
            rx="5" fill="#a7a7a7"/>
      
      

     
   
  </g>

  <g class='  keycap'
  >

  
    <!-- Outer Border -->
    <rect x="527.5" y="62.019999999999996"
          width="52" height="52"
          rx="5" fill="#888888" class="outer border"/>
    
    <!-- Outer Fill -->
    <rect x="527.5" y="62.019999999999996"
          width="52" height="52"
          rx="5" fill="#888888"/>
    

    
      <!-- Inner Border -->
      <rect x="533.5" y="65.02"
            width="40" height="40"
            rx="5" fill="#a7a7a7" class="inner border"/>
      
      <!-- Inner Fill -->
      <rect x="533.5" y="65.02"
            width="40" height="40"
            rx="5" fill="#a7a7a7"/>
      
      

     
   
  </g>

  <g class='  keycap'
  >

  
    <!-- Outer Border -->
    <rect x="635.5" y="62.019999999999996"
          width="52" height="52"
          rx="5" fill="#888888" class="outer border"/>
    
    <!-- Outer Fill -->
    <rect x="635.5" y="62.019999999999996"
          width="52" height="52"
          rx="5" fill="#888888"/>
    

    
      <!-- Inner Border -->
      <rect x="641.5" y="65.02"
            width="40" height="40"
            rx="5" fill="#a7a7a7" class="inner border"/>
      
      <!-- Inner Fill -->
      <rect x="641.5" y="65.02"
            width="40" height="40"
            rx="5" fill="#a7a7a7"/>
      
      

     
   
  </g>

  <g class='  keycap'
  >

  
    <!-- Outer Border -->
    <rect x="271" y="68.5"
          width="52" height="52"
          rx="5" fill="#888888" class="outer border"/>
    
    <!-- Outer Fill -->
    <rect x="271" y="68.5"
          width="52" height="52"
          rx="5" fill="#888888"/>
    

    
      <!-- Inner Border -->
      <rect x="277" y="71.5"
            width="40" height="40"
            rx="5" fill="#a7a7a7" class="inner border"/>
      
      <!-- Inner Fill -->
      <rect x="277" y="71.5"
            width="40" height="40"
            rx="5" fill="#a7a7a7"/>
      
      

     
   
  </g>

  <g class='  keycap'
  >

  
    <!-- Outer Border -->
    <rect x="473.5" y="68.5"
          width="52" height="52"
          rx="5" fill="#888888" class="outer border"/>
    
    <!-- Outer Fill -->
    <rect x="473.5" y="68.5"
          width="52" height="52"
          rx="5" fill="#888888"/>
    

    
      <!-- Inner Border -->
      <rect x="479.5" y="71.5"
            width="40" height="40"
            rx="5" fill="#a7a7a7" class="inner border"/>
      
      <!-- Inner Fill -->
      <rect x="479.5" y="71.5"
            width="40" height="40"
            rx="5" fill="#a7a7a7"/>
      
      

     
   
  </g>

  <g class='  keycap'
  >

  
    <!-- Outer Border -->
    <rect x="1" y="75.52"
          width="52" height="52"
          rx="5" fill="#888888" class="outer border"/>
    
    <!-- Outer Fill -->
    <rect x="1" y="75.52"
          width="52" height="52"
          rx="5" fill="#888888"/>
    

    
      <!-- Inner Border -->
      <rect x="7" y="78.52"
            width="40" height="40"
            rx="5" fill="#a7a7a7" class="inner border"/>
      
      <!-- Inner Fill -->
      <rect x="7" y="78.52"
            width="40" height="40"
            rx="5" fill="#a7a7a7"/>
      
      

     
   
  </g>

  <g class='  keycap'
  >

  
    <!-- Outer Border -->
    <rect x="55" y="75.52"
          width="52" height="52"
          rx="5" fill="#888888" class="outer border"/>
    
    <!-- Outer Fill -->
    <rect x="55" y="75.52"
          width="52" height="52"
          rx="5" fill="#888888"/>
    

    
      <!-- Inner Border -->
      <rect x="61" y="78.52"
            width="40" height="40"
            rx="5" fill="#a7a7a7" class="inner border"/>
      
      <!-- Inner Fill -->
      <rect x="61" y="78.52"
            width="40" height="40"
            rx="5" fill="#a7a7a7"/>
      
      

     
   
  </g>

  <g class='  keycap'
  >

  
    <!-- Outer Border -->
    <rect x="689.5" y="75.52"
          width="52" height="52"
          rx="5" fill="#888888" class="outer border"/>
    
    <!-- Outer Fill -->
    <rect x="689.5" y="75.52"
          width="52" height="52"
          rx="5" fill="#888888"/>
    

    
      <!-- Inner Border -->
      <rect x="695.5" y="78.52"
            width="40" height="40"
            rx="5" fill="#a7a7a7" class="inner border"/>
      
      <!-- Inner Fill -->
      <rect x="695.5" y="78.52"
            width="40" height="40"
            rx="5" fill="#a7a7a7"/>
      
      

     
   
  </g>

  <g class='  keycap'
  >

  
    <!-- Outer Border -->
    <rect x="743.5" y="75.52"
          width="52" height="52"
          rx="5" fill="#888888" class="outer border"/>
    
    <!-- Outer Fill -->
    <rect x="743.5" y="75.52"
          width="52" height="52"
          rx="5" fill="#888888"/>
    

    
      <!-- Inner Border -->
      <rect x="749.5" y="78.52"
            width="40" height="40"
            rx="5" fill="#a7a7a7" class="inner border"/>
      
      <!-- Inner Fill -->
      <rect x="749.5" y="78.52"
            width="40" height="40"
            rx="5" fill="#a7a7a7"/>
      
      

     
   
  </g>

  <g class='  keycap'
  >

  
    <!-- Outer Border -->
    <rect x="163" y="109"
          width="52" height="52"
          rx="5" fill="#888888" class="outer border"/>
    
    <!-- Outer Fill -->
    <rect x="163" y="109"
          width="52" height="52"
          rx="5" fill="#888888"/>
    

    
      <!-- Inner Border -->
      <rect x="169" y="112"
            width="40" height="40"
            rx="5" fill="#a7a7a7" class="inner border"/>
      
      <!-- Inner Fill -->
      <rect x="169" y="112"
            width="40" height="40"
            rx="5" fill="#a7a7a7"/>
      
      

     
   
  </g>

  <g class='  keycap'
  >

  
    <!-- Outer Border -->
    <rect x="581.5" y="109"
          width="52" height="52"
          rx="5" fill="#888888" class="outer border"/>
    
    <!-- Outer Fill -->
    <rect x="581.5" y="109"
          width="52" height="52"
          rx="5" fill="#888888"/>
    

    
      <!-- Inner Border -->
      <rect x="587.5" y="112"
            width="40" height="40"
            rx="5" fill="#a7a7a7" class="inner border"/>
      
      <!-- Inner Fill -->
      <rect x="587.5" y="112"
            width="40" height="40"
            rx="5" fill="#a7a7a7"/>
      
      

     
   
  </g>

  <g class='  keycap'
  >

  
    <!-- Outer Border -->
    <rect x="109" y="116.02"
          width="52" height="52"
          rx="5" fill="#888888" class="outer border"/>
    
    <!-- Outer Fill -->
    <rect x="109" y="116.02"
          width="52" height="52"
          rx="5" fill="#888888"/>
    

    
      <!-- Inner Border -->
      <rect x="115" y="119.02"
            width="40" height="40"
            rx="5" fill="#a7a7a7" class="inner border"/>
      
      <!-- Inner Fill -->
      <rect x="115" y="119.02"
            width="40" height="40"
            rx="5" fill="#a7a7a7"/>
      
      

     
   
  </g>

  <g class='  keycap'
  >

  
    <!-- Outer Border -->
    <rect x="217" y="116.02"
          width="52" height="52"
          rx="5" fill="#888888" class="outer border"/>
    
    <!-- Outer Fill -->
    <rect x="217" y="116.02"
          width="52" height="52"
          rx="5" fill="#888888"/>
    

    
      <!-- Inner Border -->
      <rect x="223" y="119.02"
            width="40" height="40"
            rx="5" fill="#a7a7a7" class="inner border"/>
      
      <!-- Inner Fill -->
      <rect x="223" y="119.02"
            width="40" height="40"
            rx="5" fill="#a7a7a7"/>
      
      

     
   
  </g>

  <g class='  keycap'
  >

  
    <!-- Outer Border -->
    <rect x="527.5" y="116.02"
          width="52" height="52"
          rx="5" fill="#888888" class="outer border"/>
    
    <!-- Outer Fill -->
    <rect x="527.5" y="116.02"
          width="52" height="52"
          rx="5" fill="#888888"/>
    

    
      <!-- Inner Border -->
      <rect x="533.5" y="119.02"
            width="40" height="40"
            rx="5" fill="#a7a7a7" class="inner border"/>
      
      <!-- Inner Fill -->
      <rect x="533.5" y="119.02"
            width="40" height="40"
            rx="5" fill="#a7a7a7"/>
      
      

     
   
  </g>

  <g class='  keycap'
  >

  
    <!-- Outer Border -->
    <rect x="635.5" y="116.02"
          width="52" height="52"
          rx="5" fill="#888888" class="outer border"/>
    
    <!-- Outer Fill -->
    <rect x="635.5" y="116.02"
          width="52" height="52"
          rx="5" fill="#888888"/>
    

    
      <!-- Inner Border -->
      <rect x="641.5" y="119.02"
            width="40" height="40"
            rx="5" fill="#a7a7a7" class="inner border"/>
      
      <!-- Inner Fill -->
      <rect x="641.5" y="119.02"
            width="40" height="40"
            rx="5" fill="#a7a7a7"/>
      
      

     
   
  </g>

  <g class='  keycap'
  >

  
    <!-- Outer Border -->
    <rect x="271" y="122.5"
          width="52" height="52"
          rx="5" fill="#888888" class="outer border"/>
    
    <!-- Outer Fill -->
    <rect x="271" y="122.5"
          width="52" height="52"
          rx="5" fill="#888888"/>
    

    
      <!-- Inner Border -->
      <rect x="277" y="125.5"
            width="40" height="40"
            rx="5" fill="#a7a7a7" class="inner border"/>
      
      <!-- Inner Fill -->
      <rect x="277" y="125.5"
            width="40" height="40"
            rx="5" fill="#a7a7a7"/>
      
      

     
   
  </g>

  <g class='  keycap'
  >

  
    <!-- Outer Border -->
    <rect x="473.5" y="122.5"
          width="52" height="52"
          rx="5" fill="#888888" class="outer border"/>
    
    <!-- Outer Fill -->
    <rect x="473.5" y="122.5"
          width="52" height="52"
          rx="5" fill="#888888"/>
    

    
      <!-- Inner Border -->
      <rect x="479.5" y="125.5"
            width="40" height="40"
            rx="5" fill="#a7a7a7" class="inner border"/>
      
      <!-- Inner Fill -->
      <rect x="479.5" y="125.5"
            width="40" height="40"
            rx="5" fill="#a7a7a7"/>
      
      

     
   
  </g>

  <g class='  keycap'
  >

  
    <!-- Outer Border -->
    <rect x="1" y="129.51999999999998"
          width="52" height="52"
          rx="5" fill="#888888" class="outer border"/>
    
    <!-- Outer Fill -->
    <rect x="1" y="129.51999999999998"
          width="52" height="52"
          rx="5" fill="#888888"/>
    

    
      <!-- Inner Border -->
      <rect x="7" y="132.51999999999998"
            width="40" height="40"
            rx="5" fill="#a7a7a7" class="inner border"/>
      
      <!-- Inner Fill -->
      <rect x="7" y="132.51999999999998"
            width="40" height="40"
            rx="5" fill="#a7a7a7"/>
      
      

     
   
  </g>

  <g class='  keycap'
  >

  
    <!-- Outer Border -->
    <rect x="55" y="129.51999999999998"
          width="52" height="52"
          rx="5" fill="#888888" class="outer border"/>
    
    <!-- Outer Fill -->
    <rect x="55" y="129.51999999999998"
          width="52" height="52"
          rx="5" fill="#888888"/>
    

    
      <!-- Inner Border -->
      <rect x="61" y="132.51999999999998"
            width="40" height="40"
            rx="5" fill="#a7a7a7" class="inner border"/>
      
      <!-- Inner Fill -->
      <rect x="61" y="132.51999999999998"
            width="40" height="40"
            rx="5" fill="#a7a7a7"/>
      
      

     
   
  </g>

  <g class='  keycap'
  >

  
    <!-- Outer Border -->
    <rect x="689.5" y="129.51999999999998"
          width="52" height="52"
          rx="5" fill="#888888" class="outer border"/>
    
    <!-- Outer Fill -->
    <rect x="689.5" y="129.51999999999998"
          width="52" height="52"
          rx="5" fill="#888888"/>
    

    
      <!-- Inner Border -->
      <rect x="695.5" y="132.51999999999998"
            width="40" height="40"
            rx="5" fill="#a7a7a7" class="inner border"/>
      
      <!-- Inner Fill -->
      <rect x="695.5" y="132.51999999999998"
            width="40" height="40"
            rx="5" fill="#a7a7a7"/>
      
      

     
   
  </g>

  <g class='  keycap'
  >

  
    <!-- Outer Border -->
    <rect x="743.5" y="129.51999999999998"
          width="52" height="52"
          rx="5" fill="#888888" class="outer border"/>
    
    <!-- Outer Fill -->
    <rect x="743.5" y="129.51999999999998"
          width="52" height="52"
          rx="5" fill="#888888"/>
    

    
      <!-- Inner Border -->
      <rect x="749.5" y="132.51999999999998"
            width="40" height="40"
            rx="5" fill="#a7a7a7" class="inner border"/>
      
      <!-- Inner Fill -->
      <rect x="749.5" y="132.51999999999998"
            width="40" height="40"
            rx="5" fill="#a7a7a7"/>
      
      

     
   
  </g>

  <g class='  keycap'
  >

  
    <!-- Outer Border -->
    <rect x="190" y="171.64000000000001"
          width="52" height="52"
          rx="5" fill="#888888" class="outer border"/>
    
    <!-- Outer Fill -->
    <rect x="190" y="171.64000000000001"
          width="52" height="52"
          rx="5" fill="#888888"/>
    

    
      <!-- Inner Border -->
      <rect x="196" y="174.64000000000001"
            width="40" height="40"
            rx="5" fill="#a7a7a7" class="inner border"/>
      
      <!-- Inner Fill -->
      <rect x="196" y="174.64000000000001"
            width="40" height="40"
            rx="5" fill="#a7a7a7"/>
      
      

     
   
  </g>

  <g class='  keycap'
  >

  
    <!-- Outer Border -->
    <rect x="554.5" y="171.64000000000001"
          width="52" height="52"
          rx="5" fill="#888888" class="outer border"/>
    
    <!-- Outer Fill -->
    <rect x="554.5" y="171.64000000000001"
          width="52" height="52"
          rx="5" fill="#888888"/>
    

    
      <!-- Inner Border -->
      <rect x="560.5" y="174.64000000000001"
            width="40" height="40"
            rx="5" fill="#a7a7a7" class="inner border"/>
      
      <!-- Inner Fill -->
      <rect x="560.5" y="174.64000000000001"
            width="40" height="40"
            rx="5" fill="#a7a7a7"/>
      
      

     
   
  </g>

  <g class='  keycap'
  
     transform="rotate(15 243 224.64000000000001)"
  >

  
    <!-- Outer Border -->
    <rect x="244" y="171.64000000000001"
          width="52" height="52"
          rx="5" fill="#888888" class="outer border"/>
    
    <!-- Outer Fill -->
    <rect x="244" y="171.64000000000001"
          width="52" height="52"
          rx="5" fill="#888888"/>
    

    
      <!-- Inner Border -->
      <rect x="250" y="174.64000000000001"
            width="40" height="40"
            rx="5" fill="#a7a7a7" class="inner border"/>
      
      <!-- Inner Fill -->
      <rect x="250" y="174.64000000000001"
            width="40" height="40"
            rx="5" fill="#a7a7a7"/>
      
      

     
   
  </g>

  <g class='  keycap'
  
     transform="rotate(30 243 230.04)"
  >

  
    <!-- Outer Border -->
    <rect x="293.14" y="130.06"
          width="52" height="79"
          rx="5" fill="#888888" class="outer border"/>
    
    <!-- Outer Fill -->
    <rect x="293.14" y="130.06"
          width="52" height="79"
          rx="5" fill="#888888"/>
    

    
      <!-- Inner Border -->
      <rect x="299.14" y="133.06"
            width="40" height="67"
            rx="5" fill="#a7a7a7" class="inner border"/>
      
      <!-- Inner Fill -->
      <rect x="299.14" y="133.06"
            width="40" height="67"
            rx="5" fill="#a7a7a7"/>
      
      

     
   
  </g>

  <g class='  keycap'
  
     transform="rotate(-30 553.5 230.04)"
  >

  
    <!-- Outer Border -->
    <rect x="451.36" y="130.06"
          width="52" height="79"
          rx="5" fill="#888888" class="outer border"/>
    
    <!-- Outer Fill -->
    <rect x="451.36" y="130.06"
          width="52" height="79"
          rx="5" fill="#888888"/>
    

    
      <!-- Inner Border -->
      <rect x="457.36" y="133.06"
            width="40" height="67"
            rx="5" fill="#a7a7a7" class="inner border"/>
      
      <!-- Inner Fill -->
      <rect x="457.36" y="133.06"
            width="40" height="67"
            rx="5" fill="#a7a7a7"/>
      
      

     
   
  </g>

  <g class='  keycap'
  
     transform="rotate(-15 553.5 224.64000000000001)"
  >

  
    <!-- Outer Border -->
    <rect x="500.5" y="171.64000000000001"
          width="52" height="52"
          rx="5" fill="#888888" class="outer border"/>
    
    <!-- Outer Fill -->
    <rect x="500.5" y="171.64000000000001"
          width="52" height="52"
          rx="5" fill="#888888"/>
    

    
      <!-- Inner Border -->
      <rect x="506.5" y="174.64000000000001"
            width="40" height="40"
            rx="5" fill="#a7a7a7" class="inner border"/>
      
      <!-- Inner Fill -->
      <rect x="506.5" y="174.64000000000001"
            width="40" height="40"
            rx="5" fill="#a7a7a7"/>
      
      

     
   
  </g>

      </g>
    </g>
  </svg>
